<?xml version="1.0" encoding="UTF-8" standalone="no"?>
<!DOCTYPE svg PUBLIC "-//W3C//DTD SVG 1.1//EN" "http://www.w3.org/Graphics/SVG/1.1/DTD/svg11.dtd">
<svg width="100%" height="100%" viewBox="0 0 1708 675" version="1.1" xmlns="http://www.w3.org/2000/svg" xmlns:xlink="http://www.w3.org/1999/xlink" xml:space="preserve" xmlns:serif="http://www.serif.com/" style="fill-rule:evenodd;clip-rule:evenodd;stroke-linejoin:round;stroke-miterlimit:2;">
    <g transform="matrix(1.93691,0,0,1.93691,-12878,-4448.5)">
        <g transform="matrix(138.102,0,0,138.102,6814.34,2601.51)">
            <path d="M0.601,-0L0.601,-0.137L0.31,-0.137L0.31,-0.29L0.583,-0.29L0.583,-0.422L0.31,-0.422L0.31,-0.543L0.592,-0.543L0.592,-0.68L0.066,-0.68L0.066,-0L0.601,-0Z" style="fill:rgb(150,150,150);fill-rule:nonzero;"/>
        </g>
        <g transform="matrix(138.102,0,0,138.102,6902.86,2601.51)">
            <path d="M0.775,-0L0.775,-0.68L0.572,-0.68L0.572,-0.187L0.424,-0.68L0.066,-0.68L0.066,-0L0.269,-0L0.269,-0.496L0.418,-0L0.775,-0Z" style="fill:rgb(150,150,150);fill-rule:nonzero;"/>
        </g>
        <g transform="matrix(138.102,0,0,138.102,7019,2601.51)">
            <path d="M0.601,-0L0.601,-0.137L0.31,-0.137L0.31,-0.29L0.583,-0.29L0.583,-0.422L0.31,-0.422L0.31,-0.543L0.592,-0.543L0.592,-0.68L0.066,-0.68L0.066,-0L0.601,-0Z" style="fill:rgb(150,150,150);fill-rule:nonzero;"/>
        </g>
        <g transform="matrix(138.102,0,0,138.102,7107.53,2601.51)">
            <path d="M0.712,-0L0.539,-0.31L0.557,-0.314C0.582,-0.319 0.688,-0.359 0.688,-0.482C0.688,-0.605 0.596,-0.68 0.39,-0.68L0.066,-0.68L0.066,-0L0.31,-0L0.31,-0.275L0.437,-0L0.712,-0ZM0.441,-0.478C0.441,-0.429 0.42,-0.396 0.372,-0.396L0.31,-0.396L0.31,-0.55L0.372,-0.55C0.409,-0.55 0.441,-0.525 0.441,-0.478Z" style="fill:rgb(150,150,150);fill-rule:nonzero;"/>
        </g>
        <g transform="matrix(138.102,0,0,138.102,7209.59,2601.51)">
            <path d="M0.675,-0.033L0.675,-0.364L0.437,-0.364L0.437,-0.141C0.431,-0.135 0.388,-0.129 0.38,-0.129C0.317,-0.129 0.289,-0.187 0.289,-0.355C0.289,-0.487 0.331,-0.546 0.475,-0.546C0.543,-0.546 0.619,-0.52 0.639,-0.508L0.639,-0.654C0.62,-0.665 0.518,-0.692 0.397,-0.692C0.194,-0.692 0.038,-0.593 0.038,-0.355C0.038,-0.086 0.139,0.012 0.4,0.012C0.521,0.012 0.637,-0.019 0.675,-0.033Z" style="fill:rgb(150,150,150);fill-rule:nonzero;"/>
        </g>
    </g>
    <g transform="matrix(1.31178,0,0,1.09449,-7578.07,-1755.13)">
        <path d="M6819.02,2185.51L6819.55,1973.9L6771.69,1973.9L6771.16,2171.28C6771.16,2183.96 6766.5,2192.49 6756.15,2192.49C6752.79,2192.49 6745.03,2189.91 6742.7,2189.39L6742.7,2217.07C6747.1,2218.1 6764.17,2219.66 6770.64,2219.66C6800.91,2219.66 6819.02,2209.83 6819.02,2185.51Z" style="fill:rgb(150,150,150);"/>
    </g>
    <g transform="matrix(0.583126,0,0,0.583126,853.586,657.91)">
        <g transform="matrix(83.3333,0,0,83.3333,-643.917,0)">
            <path d="M0.091,-0L0.091,-0.68L0.472,-0.68L0.472,-0.62L0.168,-0.62L0.168,-0.385L0.464,-0.385L0.464,-0.326L0.168,-0.326L0.168,-0.06L0.481,-0.06L0.481,-0L0.091,-0Z" style="fill:rgb(150,150,150);fill-rule:nonzero;"/>
        </g>
        <g transform="matrix(83.3333,0,0,83.3333,-599.083,0)">
            <path d="M0.333,-0.462C0.328,-0.463 0.32,-0.464 0.31,-0.466C0.299,-0.467 0.291,-0.467 0.285,-0.467C0.271,-0.467 0.257,-0.466 0.243,-0.464C0.228,-0.462 0.215,-0.46 0.203,-0.457C0.191,-0.454 0.181,-0.452 0.172,-0.449C0.163,-0.446 0.156,-0.444 0.153,-0.443L0.153,-0L0.078,-0L0.078,-0.484C0.081,-0.486 0.09,-0.489 0.103,-0.494C0.116,-0.498 0.131,-0.502 0.15,-0.507C0.169,-0.511 0.189,-0.515 0.212,-0.519C0.234,-0.522 0.256,-0.524 0.278,-0.524C0.281,-0.524 0.286,-0.524 0.291,-0.524C0.296,-0.523 0.302,-0.523 0.308,-0.522C0.313,-0.521 0.318,-0.521 0.323,-0.52C0.328,-0.519 0.331,-0.519 0.333,-0.519L0.333,-0.462Z" style="fill:rgb(150,150,150);fill-rule:nonzero;"/>
        </g>
        <g transform="matrix(83.3333,0,0,83.3333,-569,0)">
            <path d="M0.078,-0L0.078,-0.723L0.153,-0.723L0.153,-0L0.078,-0ZM0.406,-0L0.154,-0.269L0.387,-0.512L0.482,-0.512L0.237,-0.269L0.506,-0L0.406,-0Z" style="fill:rgb(150,150,150);fill-rule:nonzero;"/>
        </g>
        <g transform="matrix(83.3333,0,0,83.3333,-525.333,0)">
            <path d="M0.42,-0.293C0.419,-0.318 0.416,-0.342 0.41,-0.364C0.404,-0.385 0.395,-0.404 0.383,-0.42C0.371,-0.436 0.356,-0.448 0.338,-0.458C0.32,-0.467 0.299,-0.471 0.276,-0.471C0.229,-0.471 0.194,-0.456 0.17,-0.425C0.145,-0.394 0.132,-0.35 0.131,-0.293L0.42,-0.293ZM0.131,-0.243C0.132,-0.177 0.146,-0.127 0.171,-0.093C0.196,-0.059 0.239,-0.042 0.299,-0.042C0.318,-0.042 0.337,-0.044 0.356,-0.047C0.375,-0.05 0.392,-0.055 0.408,-0.06C0.423,-0.065 0.437,-0.07 0.448,-0.075C0.459,-0.08 0.467,-0.085 0.47,-0.088L0.47,-0.027C0.465,-0.024 0.456,-0.02 0.444,-0.015C0.432,-0.01 0.418,-0.006 0.401,-0.002C0.384,0.002 0.366,0.005 0.346,0.008C0.325,0.011 0.304,0.012 0.281,0.012C0.238,0.012 0.203,0.006 0.174,-0.005C0.145,-0.016 0.122,-0.034 0.105,-0.057C0.088,-0.08 0.075,-0.11 0.068,-0.145C0.061,-0.18 0.057,-0.222 0.057,-0.269C0.057,-0.353 0.076,-0.417 0.115,-0.46C0.154,-0.503 0.208,-0.524 0.277,-0.524C0.344,-0.524 0.397,-0.502 0.436,-0.459C0.474,-0.416 0.493,-0.352 0.493,-0.269L0.493,-0.243L0.131,-0.243Z" style="fill:rgb(150,150,150);fill-rule:nonzero;"/>
        </g>
        <g transform="matrix(83.3333,0,0,83.3333,-479.75,0)">
            <path d="M0.433,-0L0.433,-0.316C0.433,-0.368 0.423,-0.406 0.402,-0.431C0.381,-0.456 0.345,-0.468 0.295,-0.468C0.28,-0.468 0.265,-0.467 0.25,-0.465C0.235,-0.463 0.222,-0.46 0.209,-0.458C0.196,-0.455 0.185,-0.451 0.176,-0.448C0.166,-0.445 0.158,-0.442 0.153,-0.44L0.153,-0L0.078,-0L0.078,-0.482C0.085,-0.485 0.095,-0.488 0.11,-0.493C0.125,-0.498 0.142,-0.502 0.162,-0.507C0.182,-0.512 0.204,-0.516 0.227,-0.519C0.25,-0.522 0.274,-0.524 0.298,-0.524C0.367,-0.524 0.419,-0.51 0.454,-0.482C0.489,-0.454 0.507,-0.412 0.507,-0.356L0.507,-0L0.433,-0Z" style="fill:rgb(150,150,150);fill-rule:nonzero;"/>
        </g>
        <g transform="matrix(83.3333,0,0,83.3333,-431,0)">
            <path d="M0.433,-0L0.433,-0.316C0.433,-0.368 0.423,-0.406 0.402,-0.431C0.381,-0.456 0.345,-0.468 0.295,-0.468C0.28,-0.468 0.265,-0.467 0.25,-0.465C0.235,-0.463 0.222,-0.46 0.209,-0.458C0.196,-0.455 0.185,-0.451 0.176,-0.448C0.166,-0.445 0.158,-0.442 0.153,-0.44L0.153,-0L0.078,-0L0.078,-0.482C0.085,-0.485 0.095,-0.488 0.11,-0.493C0.125,-0.498 0.142,-0.502 0.162,-0.507C0.182,-0.512 0.204,-0.516 0.227,-0.519C0.25,-0.522 0.274,-0.524 0.298,-0.524C0.367,-0.524 0.419,-0.51 0.454,-0.482C0.489,-0.454 0.507,-0.412 0.507,-0.356L0.507,-0L0.433,-0Z" style="fill:rgb(150,150,150);fill-rule:nonzero;"/>
        </g>
        <g transform="matrix(83.3333,0,0,83.3333,-382.25,0)">
            <path d="M0.42,-0.293C0.419,-0.318 0.416,-0.342 0.41,-0.364C0.404,-0.385 0.395,-0.404 0.383,-0.42C0.371,-0.436 0.356,-0.448 0.338,-0.458C0.32,-0.467 0.299,-0.471 0.276,-0.471C0.229,-0.471 0.194,-0.456 0.17,-0.425C0.145,-0.394 0.132,-0.35 0.131,-0.293L0.42,-0.293ZM0.131,-0.243C0.132,-0.177 0.146,-0.127 0.171,-0.093C0.196,-0.059 0.239,-0.042 0.299,-0.042C0.318,-0.042 0.337,-0.044 0.356,-0.047C0.375,-0.05 0.392,-0.055 0.408,-0.06C0.423,-0.065 0.437,-0.07 0.448,-0.075C0.459,-0.08 0.467,-0.085 0.47,-0.088L0.47,-0.027C0.465,-0.024 0.456,-0.02 0.444,-0.015C0.432,-0.01 0.418,-0.006 0.401,-0.002C0.384,0.002 0.366,0.005 0.346,0.008C0.325,0.011 0.304,0.012 0.281,0.012C0.238,0.012 0.203,0.006 0.174,-0.005C0.145,-0.016 0.122,-0.034 0.105,-0.057C0.088,-0.08 0.075,-0.11 0.068,-0.145C0.061,-0.18 0.057,-0.222 0.057,-0.269C0.057,-0.353 0.076,-0.417 0.115,-0.46C0.154,-0.503 0.208,-0.524 0.277,-0.524C0.344,-0.524 0.397,-0.502 0.436,-0.459C0.474,-0.416 0.493,-0.352 0.493,-0.269L0.493,-0.243L0.131,-0.243Z" style="fill:rgb(150,150,150);fill-rule:nonzero;"/>
        </g>
        <g transform="matrix(83.3333,0,0,83.3333,-336.667,0)">
            <path d="M0.433,-0L0.433,-0.316C0.433,-0.368 0.423,-0.406 0.402,-0.431C0.381,-0.456 0.345,-0.468 0.295,-0.468C0.28,-0.468 0.265,-0.467 0.25,-0.465C0.235,-0.463 0.222,-0.46 0.209,-0.458C0.196,-0.455 0.185,-0.451 0.176,-0.448C0.166,-0.445 0.158,-0.442 0.153,-0.44L0.153,-0L0.078,-0L0.078,-0.482C0.085,-0.485 0.095,-0.488 0.11,-0.493C0.125,-0.498 0.142,-0.502 0.162,-0.507C0.182,-0.512 0.204,-0.516 0.227,-0.519C0.25,-0.522 0.274,-0.524 0.298,-0.524C0.367,-0.524 0.419,-0.51 0.454,-0.482C0.489,-0.454 0.507,-0.412 0.507,-0.356L0.507,-0L0.433,-0Z" style="fill:rgb(150,150,150);fill-rule:nonzero;"/>
        </g>
        <g transform="matrix(83.3333,0,0,83.3333,-287.917,0)">
            <rect x="0.113" y="-0.087" width="0.072" height="0.087" style="fill:rgb(150,150,150);fill-rule:nonzero;"/>
        </g>
        <g transform="matrix(83.3333,0,0,83.3333,-238.417,0)">
            <path d="M0.346,-0L0.244,-0L0.018,-0.68L0.103,-0.68L0.298,-0.054L0.49,-0.68L0.57,-0.68L0.346,-0Z" style="fill:rgb(150,150,150);fill-rule:nonzero;"/>
        </g>
        <g transform="matrix(83.3333,0,0,83.3333,-189.417,0)">
            <path d="M0.42,-0.293C0.419,-0.318 0.416,-0.342 0.41,-0.364C0.404,-0.385 0.395,-0.404 0.383,-0.42C0.371,-0.436 0.356,-0.448 0.338,-0.458C0.32,-0.467 0.299,-0.471 0.276,-0.471C0.229,-0.471 0.194,-0.456 0.17,-0.425C0.145,-0.394 0.132,-0.35 0.131,-0.293L0.42,-0.293ZM0.131,-0.243C0.132,-0.177 0.146,-0.127 0.171,-0.093C0.196,-0.059 0.239,-0.042 0.299,-0.042C0.318,-0.042 0.337,-0.044 0.356,-0.047C0.375,-0.05 0.392,-0.055 0.408,-0.06C0.423,-0.065 0.437,-0.07 0.448,-0.075C0.459,-0.08 0.467,-0.085 0.47,-0.088L0.47,-0.027C0.465,-0.024 0.456,-0.02 0.444,-0.015C0.432,-0.01 0.418,-0.006 0.401,-0.002C0.384,0.002 0.366,0.005 0.346,0.008C0.325,0.011 0.304,0.012 0.281,0.012C0.238,0.012 0.203,0.006 0.174,-0.005C0.145,-0.016 0.122,-0.034 0.105,-0.057C0.088,-0.08 0.075,-0.11 0.068,-0.145C0.061,-0.18 0.057,-0.222 0.057,-0.269C0.057,-0.353 0.076,-0.417 0.115,-0.46C0.154,-0.503 0.208,-0.524 0.277,-0.524C0.344,-0.524 0.397,-0.502 0.436,-0.459C0.474,-0.416 0.493,-0.352 0.493,-0.269L0.493,-0.243L0.131,-0.243Z" style="fill:rgb(150,150,150);fill-rule:nonzero;"/>
        </g>
        <g transform="matrix(83.3333,0,0,83.3333,-143.833,0)">
            <path d="M0.333,-0.462C0.328,-0.463 0.32,-0.464 0.31,-0.466C0.299,-0.467 0.291,-0.467 0.285,-0.467C0.271,-0.467 0.257,-0.466 0.243,-0.464C0.228,-0.462 0.215,-0.46 0.203,-0.457C0.191,-0.454 0.181,-0.452 0.172,-0.449C0.163,-0.446 0.156,-0.444 0.153,-0.443L0.153,-0L0.078,-0L0.078,-0.484C0.081,-0.486 0.09,-0.489 0.103,-0.494C0.116,-0.498 0.131,-0.502 0.15,-0.507C0.169,-0.511 0.189,-0.515 0.212,-0.519C0.234,-0.522 0.256,-0.524 0.278,-0.524C0.281,-0.524 0.286,-0.524 0.291,-0.524C0.296,-0.523 0.302,-0.523 0.308,-0.522C0.313,-0.521 0.318,-0.521 0.323,-0.52C0.328,-0.519 0.331,-0.519 0.333,-0.519L0.333,-0.462Z" style="fill:rgb(150,150,150);fill-rule:nonzero;"/>
        </g>
        <g transform="matrix(83.3333,0,0,83.3333,-113.75,0)">
            <path d="M0.452,-0.269C0.452,-0.34 0.439,-0.391 0.412,-0.422C0.385,-0.453 0.346,-0.468 0.296,-0.468C0.279,-0.468 0.263,-0.467 0.248,-0.464C0.232,-0.461 0.218,-0.458 0.205,-0.455C0.192,-0.452 0.181,-0.448 0.172,-0.445C0.163,-0.442 0.156,-0.439 0.153,-0.438L0.153,-0.072C0.159,-0.069 0.167,-0.066 0.178,-0.063C0.188,-0.059 0.199,-0.056 0.212,-0.053C0.225,-0.05 0.238,-0.048 0.253,-0.046C0.267,-0.044 0.281,-0.043 0.295,-0.043C0.322,-0.043 0.346,-0.047 0.366,-0.056C0.386,-0.064 0.402,-0.077 0.415,-0.095C0.428,-0.113 0.437,-0.136 0.443,-0.165C0.449,-0.194 0.452,-0.228 0.452,-0.269ZM0.53,-0.269C0.53,-0.17 0.511,-0.098 0.472,-0.054C0.433,-0.01 0.373,0.012 0.294,0.012C0.271,0.012 0.248,0.011 0.225,0.008C0.202,0.005 0.181,0.001 0.162,-0.004C0.143,-0.008 0.126,-0.013 0.111,-0.018C0.096,-0.023 0.085,-0.027 0.078,-0.031L0.078,-0.723L0.153,-0.723L0.153,-0.491C0.158,-0.493 0.166,-0.496 0.177,-0.5C0.187,-0.504 0.199,-0.508 0.213,-0.511C0.227,-0.514 0.242,-0.517 0.259,-0.52C0.276,-0.523 0.293,-0.524 0.311,-0.524C0.378,-0.524 0.432,-0.503 0.471,-0.461C0.51,-0.419 0.53,-0.355 0.53,-0.269Z" style="fill:rgb(150,150,150);fill-rule:nonzero;"/>
        </g>
        <g transform="matrix(83.3333,0,0,83.3333,-64.9167,0)">
            <path d="M0.42,-0.293C0.419,-0.318 0.416,-0.342 0.41,-0.364C0.404,-0.385 0.395,-0.404 0.383,-0.42C0.371,-0.436 0.356,-0.448 0.338,-0.458C0.32,-0.467 0.299,-0.471 0.276,-0.471C0.229,-0.471 0.194,-0.456 0.17,-0.425C0.145,-0.394 0.132,-0.35 0.131,-0.293L0.42,-0.293ZM0.131,-0.243C0.132,-0.177 0.146,-0.127 0.171,-0.093C0.196,-0.059 0.239,-0.042 0.299,-0.042C0.318,-0.042 0.337,-0.044 0.356,-0.047C0.375,-0.05 0.392,-0.055 0.408,-0.06C0.423,-0.065 0.437,-0.07 0.448,-0.075C0.459,-0.08 0.467,-0.085 0.47,-0.088L0.47,-0.027C0.465,-0.024 0.456,-0.02 0.444,-0.015C0.432,-0.01 0.418,-0.006 0.401,-0.002C0.384,0.002 0.366,0.005 0.346,0.008C0.325,0.011 0.304,0.012 0.281,0.012C0.238,0.012 0.203,0.006 0.174,-0.005C0.145,-0.016 0.122,-0.034 0.105,-0.057C0.088,-0.08 0.075,-0.11 0.068,-0.145C0.061,-0.18 0.057,-0.222 0.057,-0.269C0.057,-0.353 0.076,-0.417 0.115,-0.46C0.154,-0.503 0.208,-0.524 0.277,-0.524C0.344,-0.524 0.397,-0.502 0.436,-0.459C0.474,-0.416 0.493,-0.352 0.493,-0.269L0.493,-0.243L0.131,-0.243Z" style="fill:rgb(150,150,150);fill-rule:nonzero;"/>
        </g>
        <g transform="matrix(83.3333,0,0,83.3333,-19.3333,0)">
            <path d="M0.421,-0.144C0.421,-0.094 0.405,-0.056 0.372,-0.029C0.339,-0.002 0.29,0.012 0.226,0.012C0.179,0.012 0.139,0.007 0.107,-0.003C0.074,-0.012 0.054,-0.02 0.045,-0.027L0.045,-0.088C0.05,-0.085 0.058,-0.081 0.07,-0.076C0.081,-0.071 0.094,-0.066 0.109,-0.061C0.124,-0.055 0.14,-0.051 0.158,-0.048C0.175,-0.044 0.193,-0.042 0.212,-0.042C0.258,-0.042 0.292,-0.051 0.313,-0.068C0.334,-0.085 0.344,-0.107 0.344,-0.132C0.344,-0.152 0.337,-0.168 0.322,-0.181C0.309,-0.193 0.292,-0.203 0.273,-0.212C0.254,-0.22 0.234,-0.228 0.214,-0.235C0.193,-0.242 0.173,-0.25 0.153,-0.259C0.132,-0.267 0.114,-0.277 0.098,-0.288C0.082,-0.299 0.069,-0.312 0.059,-0.327C0.049,-0.342 0.044,-0.361 0.044,-0.384C0.044,-0.406 0.049,-0.426 0.059,-0.443C0.068,-0.46 0.081,-0.475 0.098,-0.487C0.115,-0.499 0.134,-0.508 0.157,-0.515C0.18,-0.521 0.204,-0.524 0.231,-0.524C0.254,-0.524 0.276,-0.522 0.296,-0.519C0.315,-0.516 0.332,-0.512 0.347,-0.508C0.362,-0.503 0.374,-0.499 0.383,-0.495C0.392,-0.491 0.398,-0.488 0.401,-0.486L0.401,-0.427C0.384,-0.436 0.362,-0.445 0.335,-0.455C0.308,-0.464 0.277,-0.469 0.243,-0.469C0.2,-0.469 0.168,-0.461 0.149,-0.446C0.129,-0.431 0.119,-0.412 0.119,-0.389C0.119,-0.37 0.127,-0.354 0.142,-0.342C0.157,-0.33 0.176,-0.32 0.197,-0.311C0.216,-0.303 0.239,-0.295 0.265,-0.287C0.29,-0.278 0.315,-0.268 0.338,-0.256C0.361,-0.243 0.381,-0.228 0.397,-0.21C0.413,-0.192 0.421,-0.17 0.421,-0.144Z" style="fill:rgb(150,150,150);fill-rule:nonzero;"/>
        </g>
        <g transform="matrix(83.3333,0,0,83.3333,19.6667,0)">
            <path d="M0.421,-0.144C0.421,-0.094 0.405,-0.056 0.372,-0.029C0.339,-0.002 0.29,0.012 0.226,0.012C0.179,0.012 0.139,0.007 0.107,-0.003C0.074,-0.012 0.054,-0.02 0.045,-0.027L0.045,-0.088C0.05,-0.085 0.058,-0.081 0.07,-0.076C0.081,-0.071 0.094,-0.066 0.109,-0.061C0.124,-0.055 0.14,-0.051 0.158,-0.048C0.175,-0.044 0.193,-0.042 0.212,-0.042C0.258,-0.042 0.292,-0.051 0.313,-0.068C0.334,-0.085 0.344,-0.107 0.344,-0.132C0.344,-0.152 0.337,-0.168 0.322,-0.181C0.309,-0.193 0.292,-0.203 0.273,-0.212C0.254,-0.22 0.234,-0.228 0.214,-0.235C0.193,-0.242 0.173,-0.25 0.153,-0.259C0.132,-0.267 0.114,-0.277 0.098,-0.288C0.082,-0.299 0.069,-0.312 0.059,-0.327C0.049,-0.342 0.044,-0.361 0.044,-0.384C0.044,-0.406 0.049,-0.426 0.059,-0.443C0.068,-0.46 0.081,-0.475 0.098,-0.487C0.115,-0.499 0.134,-0.508 0.157,-0.515C0.18,-0.521 0.204,-0.524 0.231,-0.524C0.254,-0.524 0.276,-0.522 0.296,-0.519C0.315,-0.516 0.332,-0.512 0.347,-0.508C0.362,-0.503 0.374,-0.499 0.383,-0.495C0.392,-0.491 0.398,-0.488 0.401,-0.486L0.401,-0.427C0.384,-0.436 0.362,-0.445 0.335,-0.455C0.308,-0.464 0.277,-0.469 0.243,-0.469C0.2,-0.469 0.168,-0.461 0.149,-0.446C0.129,-0.431 0.119,-0.412 0.119,-0.389C0.119,-0.37 0.127,-0.354 0.142,-0.342C0.157,-0.33 0.176,-0.32 0.197,-0.311C0.216,-0.303 0.239,-0.295 0.265,-0.287C0.29,-0.278 0.315,-0.268 0.338,-0.256C0.361,-0.243 0.381,-0.228 0.397,-0.21C0.413,-0.192 0.421,-0.17 0.421,-0.144Z" style="fill:rgb(150,150,150);fill-rule:nonzero;"/>
        </g>
        <g transform="matrix(83.3333,0,0,83.3333,58.6667,0)">
            <path d="M0.42,-0.293C0.419,-0.318 0.416,-0.342 0.41,-0.364C0.404,-0.385 0.395,-0.404 0.383,-0.42C0.371,-0.436 0.356,-0.448 0.338,-0.458C0.32,-0.467 0.299,-0.471 0.276,-0.471C0.229,-0.471 0.194,-0.456 0.17,-0.425C0.145,-0.394 0.132,-0.35 0.131,-0.293L0.42,-0.293ZM0.131,-0.243C0.132,-0.177 0.146,-0.127 0.171,-0.093C0.196,-0.059 0.239,-0.042 0.299,-0.042C0.318,-0.042 0.337,-0.044 0.356,-0.047C0.375,-0.05 0.392,-0.055 0.408,-0.06C0.423,-0.065 0.437,-0.07 0.448,-0.075C0.459,-0.08 0.467,-0.085 0.47,-0.088L0.47,-0.027C0.465,-0.024 0.456,-0.02 0.444,-0.015C0.432,-0.01 0.418,-0.006 0.401,-0.002C0.384,0.002 0.366,0.005 0.346,0.008C0.325,0.011 0.304,0.012 0.281,0.012C0.238,0.012 0.203,0.006 0.174,-0.005C0.145,-0.016 0.122,-0.034 0.105,-0.057C0.088,-0.08 0.075,-0.11 0.068,-0.145C0.061,-0.18 0.057,-0.222 0.057,-0.269C0.057,-0.353 0.076,-0.417 0.115,-0.46C0.154,-0.503 0.208,-0.524 0.277,-0.524C0.344,-0.524 0.397,-0.502 0.436,-0.459C0.474,-0.416 0.493,-0.352 0.493,-0.269L0.493,-0.243L0.131,-0.243Z" style="fill:rgb(150,150,150);fill-rule:nonzero;"/>
        </g>
        <g transform="matrix(83.3333,0,0,83.3333,104.25,0)">
            <path d="M0.333,-0.462C0.328,-0.463 0.32,-0.464 0.31,-0.466C0.299,-0.467 0.291,-0.467 0.285,-0.467C0.271,-0.467 0.257,-0.466 0.243,-0.464C0.228,-0.462 0.215,-0.46 0.203,-0.457C0.191,-0.454 0.181,-0.452 0.172,-0.449C0.163,-0.446 0.156,-0.444 0.153,-0.443L0.153,-0L0.078,-0L0.078,-0.484C0.081,-0.486 0.09,-0.489 0.103,-0.494C0.116,-0.498 0.131,-0.502 0.15,-0.507C0.169,-0.511 0.189,-0.515 0.212,-0.519C0.234,-0.522 0.256,-0.524 0.278,-0.524C0.281,-0.524 0.286,-0.524 0.291,-0.524C0.296,-0.523 0.302,-0.523 0.308,-0.522C0.313,-0.521 0.318,-0.521 0.323,-0.52C0.328,-0.519 0.331,-0.519 0.333,-0.519L0.333,-0.462Z" style="fill:rgb(150,150,150);fill-rule:nonzero;"/>
        </g>
        <g transform="matrix(83.3333,0,0,83.3333,134.333,0)">
            <path d="M0.433,-0L0.433,-0.316C0.433,-0.368 0.423,-0.406 0.402,-0.431C0.381,-0.456 0.345,-0.468 0.295,-0.468C0.28,-0.468 0.265,-0.467 0.25,-0.465C0.235,-0.463 0.222,-0.46 0.209,-0.458C0.196,-0.455 0.185,-0.451 0.176,-0.448C0.166,-0.445 0.158,-0.442 0.153,-0.44L0.153,-0L0.078,-0L0.078,-0.482C0.085,-0.485 0.095,-0.488 0.11,-0.493C0.125,-0.498 0.142,-0.502 0.162,-0.507C0.182,-0.512 0.204,-0.516 0.227,-0.519C0.25,-0.522 0.274,-0.524 0.298,-0.524C0.367,-0.524 0.419,-0.51 0.454,-0.482C0.489,-0.454 0.507,-0.412 0.507,-0.356L0.507,-0L0.433,-0Z" style="fill:rgb(150,150,150);fill-rule:nonzero;"/>
        </g>
        <g transform="matrix(83.3333,0,0,83.3333,183.083,0)">
            <rect x="0.113" y="-0.087" width="0.072" height="0.087" style="fill:rgb(150,150,150);fill-rule:nonzero;"/>
        </g>
        <g transform="matrix(83.3333,0,0,83.3333,232.583,0)">
            <path d="M0.444,-0.502C0.444,-0.543 0.433,-0.573 0.41,-0.592C0.387,-0.611 0.348,-0.62 0.295,-0.62L0.168,-0.62L0.168,-0.374L0.295,-0.374C0.345,-0.374 0.382,-0.383 0.407,-0.402C0.432,-0.42 0.444,-0.453 0.444,-0.502ZM0.523,-0.502C0.523,-0.468 0.518,-0.439 0.508,-0.415C0.498,-0.391 0.484,-0.372 0.465,-0.357C0.446,-0.341 0.424,-0.331 0.397,-0.324C0.37,-0.317 0.34,-0.313 0.307,-0.313L0.168,-0.313L0.168,-0L0.091,-0L0.091,-0.68L0.302,-0.68C0.376,-0.68 0.431,-0.666 0.468,-0.639C0.505,-0.611 0.523,-0.565 0.523,-0.502Z" style="fill:rgb(150,150,150);fill-rule:nonzero;"/>
        </g>
        <g transform="matrix(83.3333,0,0,83.3333,279.75,0)">
            <path d="M0.333,-0.462C0.328,-0.463 0.32,-0.464 0.31,-0.466C0.299,-0.467 0.291,-0.467 0.285,-0.467C0.271,-0.467 0.257,-0.466 0.243,-0.464C0.228,-0.462 0.215,-0.46 0.203,-0.457C0.191,-0.454 0.181,-0.452 0.172,-0.449C0.163,-0.446 0.156,-0.444 0.153,-0.443L0.153,-0L0.078,-0L0.078,-0.484C0.081,-0.486 0.09,-0.489 0.103,-0.494C0.116,-0.498 0.131,-0.502 0.15,-0.507C0.169,-0.511 0.189,-0.515 0.212,-0.519C0.234,-0.522 0.256,-0.524 0.278,-0.524C0.281,-0.524 0.286,-0.524 0.291,-0.524C0.296,-0.523 0.302,-0.523 0.308,-0.522C0.313,-0.521 0.318,-0.521 0.323,-0.52C0.328,-0.519 0.331,-0.519 0.333,-0.519L0.333,-0.462Z" style="fill:rgb(150,150,150);fill-rule:nonzero;"/>
        </g>
        <g transform="matrix(83.3333,0,0,83.3333,309.833,0)">
            <path d="M0.451,-0.269C0.451,-0.338 0.439,-0.388 0.415,-0.42C0.39,-0.452 0.349,-0.468 0.292,-0.468C0.235,-0.468 0.195,-0.452 0.17,-0.421C0.145,-0.39 0.133,-0.339 0.133,-0.269C0.133,-0.228 0.136,-0.194 0.142,-0.165C0.147,-0.136 0.156,-0.113 0.169,-0.095C0.182,-0.077 0.198,-0.064 0.219,-0.056C0.239,-0.047 0.263,-0.043 0.292,-0.043C0.347,-0.043 0.388,-0.061 0.413,-0.096C0.438,-0.13 0.451,-0.188 0.451,-0.269ZM0.528,-0.269C0.528,-0.216 0.523,-0.172 0.514,-0.137C0.504,-0.101 0.489,-0.072 0.47,-0.05C0.45,-0.028 0.425,-0.012 0.396,-0.003C0.367,0.007 0.332,0.012 0.292,0.012C0.246,0.012 0.208,0.006 0.178,-0.005C0.147,-0.016 0.123,-0.034 0.105,-0.057C0.087,-0.08 0.075,-0.11 0.068,-0.145C0.061,-0.18 0.057,-0.222 0.057,-0.269C0.057,-0.359 0.077,-0.424 0.118,-0.464C0.158,-0.504 0.216,-0.524 0.292,-0.524C0.369,-0.524 0.427,-0.505 0.468,-0.466C0.508,-0.427 0.528,-0.361 0.528,-0.269Z" style="fill:rgb(150,150,150);fill-rule:nonzero;"/>
        </g>
        <g transform="matrix(83.3333,0,0,83.3333,358.5,0)">
            <path d="M0.291,-0.668C0.288,-0.669 0.28,-0.672 0.269,-0.675C0.257,-0.678 0.246,-0.68 0.236,-0.68C0.18,-0.68 0.152,-0.649 0.152,-0.586L0.152,-0.512L0.285,-0.512L0.285,-0.456L0.152,-0.456L0.152,-0L0.077,-0L0.077,-0.597C0.077,-0.646 0.09,-0.682 0.117,-0.703C0.144,-0.724 0.179,-0.735 0.224,-0.735C0.239,-0.735 0.253,-0.733 0.267,-0.731C0.28,-0.728 0.288,-0.726 0.291,-0.726L0.291,-0.668ZM0.373,-0L0.373,-0.512L0.447,-0.512L0.447,-0L0.373,-0ZM0.37,-0.618L0.37,-0.693L0.45,-0.693L0.45,-0.618L0.37,-0.618Z" style="fill:rgb(150,150,150);fill-rule:nonzero;"/>
        </g>
        <g transform="matrix(83.3333,0,0,83.3333,402.25,0)">
            <path d="M0.299,-0.001C0.295,0 0.289,0.002 0.282,0.003C0.274,0.004 0.266,0.006 0.258,0.007C0.249,0.008 0.241,0.008 0.233,0.009C0.224,0.01 0.217,0.01 0.212,0.01C0.163,0.01 0.128,-0.001 0.108,-0.023C0.088,-0.045 0.078,-0.075 0.078,-0.114L0.078,-0.632L0.153,-0.632L0.153,-0.512L0.288,-0.512L0.288,-0.456L0.153,-0.456L0.153,-0.127C0.153,-0.102 0.159,-0.082 0.172,-0.067C0.185,-0.052 0.204,-0.045 0.229,-0.045C0.232,-0.045 0.236,-0.046 0.242,-0.047C0.248,-0.048 0.255,-0.049 0.262,-0.05C0.269,-0.051 0.276,-0.053 0.283,-0.055C0.29,-0.056 0.295,-0.058 0.299,-0.059L0.299,-0.001Z" style="fill:rgb(150,150,150);fill-rule:nonzero;"/>
        </g>
        <g transform="matrix(83.3333,0,0,83.3333,430,0)">
            <path d="M0.078,-0L0.078,-0.512L0.153,-0.512L0.153,-0L0.078,-0ZM0.075,-0.618L0.075,-0.693L0.155,-0.693L0.155,-0.618L0.075,-0.618Z" style="fill:rgb(150,150,150);fill-rule:nonzero;"/>
        </g>
        <g transform="matrix(83.3333,0,0,83.3333,449.167,0)">
            <path d="M0.42,-0.293C0.419,-0.318 0.416,-0.342 0.41,-0.364C0.404,-0.385 0.395,-0.404 0.383,-0.42C0.371,-0.436 0.356,-0.448 0.338,-0.458C0.32,-0.467 0.299,-0.471 0.276,-0.471C0.229,-0.471 0.194,-0.456 0.17,-0.425C0.145,-0.394 0.132,-0.35 0.131,-0.293L0.42,-0.293ZM0.131,-0.243C0.132,-0.177 0.146,-0.127 0.171,-0.093C0.196,-0.059 0.239,-0.042 0.299,-0.042C0.318,-0.042 0.337,-0.044 0.356,-0.047C0.375,-0.05 0.392,-0.055 0.408,-0.06C0.423,-0.065 0.437,-0.07 0.448,-0.075C0.459,-0.08 0.467,-0.085 0.47,-0.088L0.47,-0.027C0.465,-0.024 0.456,-0.02 0.444,-0.015C0.432,-0.01 0.418,-0.006 0.401,-0.002C0.384,0.002 0.366,0.005 0.346,0.008C0.325,0.011 0.304,0.012 0.281,0.012C0.238,0.012 0.203,0.006 0.174,-0.005C0.145,-0.016 0.122,-0.034 0.105,-0.057C0.088,-0.08 0.075,-0.11 0.068,-0.145C0.061,-0.18 0.057,-0.222 0.057,-0.269C0.057,-0.353 0.076,-0.417 0.115,-0.46C0.154,-0.503 0.208,-0.524 0.277,-0.524C0.344,-0.524 0.397,-0.502 0.436,-0.459C0.474,-0.416 0.493,-0.352 0.493,-0.269L0.493,-0.243L0.131,-0.243Z" style="fill:rgb(150,150,150);fill-rule:nonzero;"/>
        </g>
        <g transform="matrix(83.3333,0,0,83.3333,494.75,0)">
            <path d="M0.333,-0.462C0.328,-0.463 0.32,-0.464 0.31,-0.466C0.299,-0.467 0.291,-0.467 0.285,-0.467C0.271,-0.467 0.257,-0.466 0.243,-0.464C0.228,-0.462 0.215,-0.46 0.203,-0.457C0.191,-0.454 0.181,-0.452 0.172,-0.449C0.163,-0.446 0.156,-0.444 0.153,-0.443L0.153,-0L0.078,-0L0.078,-0.484C0.081,-0.486 0.09,-0.489 0.103,-0.494C0.116,-0.498 0.131,-0.502 0.15,-0.507C0.169,-0.511 0.189,-0.515 0.212,-0.519C0.234,-0.522 0.256,-0.524 0.278,-0.524C0.281,-0.524 0.286,-0.524 0.291,-0.524C0.296,-0.523 0.302,-0.523 0.308,-0.522C0.313,-0.521 0.318,-0.521 0.323,-0.52C0.328,-0.519 0.331,-0.519 0.333,-0.519L0.333,-0.462Z" style="fill:rgb(150,150,150);fill-rule:nonzero;"/>
        </g>
        <g transform="matrix(83.3333,0,0,83.3333,524.833,0)">
            <path d="M0.42,-0.293C0.419,-0.318 0.416,-0.342 0.41,-0.364C0.404,-0.385 0.395,-0.404 0.383,-0.42C0.371,-0.436 0.356,-0.448 0.338,-0.458C0.32,-0.467 0.299,-0.471 0.276,-0.471C0.229,-0.471 0.194,-0.456 0.17,-0.425C0.145,-0.394 0.132,-0.35 0.131,-0.293L0.42,-0.293ZM0.131,-0.243C0.132,-0.177 0.146,-0.127 0.171,-0.093C0.196,-0.059 0.239,-0.042 0.299,-0.042C0.318,-0.042 0.337,-0.044 0.356,-0.047C0.375,-0.05 0.392,-0.055 0.408,-0.06C0.423,-0.065 0.437,-0.07 0.448,-0.075C0.459,-0.08 0.467,-0.085 0.47,-0.088L0.47,-0.027C0.465,-0.024 0.456,-0.02 0.444,-0.015C0.432,-0.01 0.418,-0.006 0.401,-0.002C0.384,0.002 0.366,0.005 0.346,0.008C0.325,0.011 0.304,0.012 0.281,0.012C0.238,0.012 0.203,0.006 0.174,-0.005C0.145,-0.016 0.122,-0.034 0.105,-0.057C0.088,-0.08 0.075,-0.11 0.068,-0.145C0.061,-0.18 0.057,-0.222 0.057,-0.269C0.057,-0.353 0.076,-0.417 0.115,-0.46C0.154,-0.503 0.208,-0.524 0.277,-0.524C0.344,-0.524 0.397,-0.502 0.436,-0.459C0.474,-0.416 0.493,-0.352 0.493,-0.269L0.493,-0.243L0.131,-0.243Z" style="fill:rgb(150,150,150);fill-rule:nonzero;"/>
        </g>
        <g transform="matrix(83.3333,0,0,83.3333,570.417,0)">
            <path d="M0.433,-0L0.433,-0.316C0.433,-0.368 0.423,-0.406 0.402,-0.431C0.381,-0.456 0.345,-0.468 0.295,-0.468C0.28,-0.468 0.265,-0.467 0.25,-0.465C0.235,-0.463 0.222,-0.46 0.209,-0.458C0.196,-0.455 0.185,-0.451 0.176,-0.448C0.166,-0.445 0.158,-0.442 0.153,-0.44L0.153,-0L0.078,-0L0.078,-0.482C0.085,-0.485 0.095,-0.488 0.11,-0.493C0.125,-0.498 0.142,-0.502 0.162,-0.507C0.182,-0.512 0.204,-0.516 0.227,-0.519C0.25,-0.522 0.274,-0.524 0.298,-0.524C0.367,-0.524 0.419,-0.51 0.454,-0.482C0.489,-0.454 0.507,-0.412 0.507,-0.356L0.507,-0L0.433,-0Z" style="fill:rgb(150,150,150);fill-rule:nonzero;"/>
        </g>
        <g transform="matrix(83.3333,0,0,83.3333,619.167,0)">
            <rect x="0.113" y="-0.087" width="0.072" height="0.087" style="fill:rgb(150,150,150);fill-rule:nonzero;"/>
        </g>
    </g>
    <g transform="matrix(1.32881,0,0,1.34155,-964.077,-1721.42)">
        <g transform="matrix(5.04053,0,0,5.04053,714.001,1255.9)">
            <path d="M66.786,54.408L62.386,54.408C59.286,54.408 56.886,53.508 55.386,51.708C53.786,49.908 52.986,47.608 52.986,44.808L52.986,6.008L59.986,6.008L59.986,44.508C59.986,45.908 60.286,46.908 60.786,47.508C61.386,48.208 62.286,48.508 63.686,48.508L66.786,48.508L66.786,54.408Z" style="fill-rule:nonzero;"/>
        </g>
        <g transform="matrix(5.04053,0,0,5.04053,714.001,1255.9)">
            <path d="M100.285,54.408L93.485,54.408L93.485,50.908C92.285,52.108 90.885,53.108 89.285,53.808C87.685,54.508 85.985,54.808 84.285,54.808C80.785,54.808 77.985,53.808 75.785,51.708C74.485,50.508 73.585,49.008 73.085,47.508C72.585,45.908 72.285,44.108 72.285,42.008L72.285,20.008L79.285,20.008L79.285,41.008C79.285,43.608 79.885,45.508 81.185,46.808C82.485,48.108 84.085,48.708 86.185,48.708C88.285,48.708 89.985,48.108 91.285,46.808C92.585,45.508 93.285,43.608 93.285,41.008L93.285,20.008L100.285,20.008L100.285,54.408Z" style="fill-rule:nonzero;"/>
        </g>
        <g transform="matrix(5.04053,0,0,5.04053,714.001,1255.9)">
            <path d="M135.085,54.408L128.285,54.408L128.285,51.308C126.985,52.608 125.685,53.508 124.285,54.008C122.886,54.508 121.185,54.808 119.085,54.808C116.985,54.808 115.185,54.508 113.685,54.008C112.185,53.508 110.885,52.708 109.785,51.708C107.985,49.808 107.085,47.308 107.085,44.308C107.085,42.308 107.585,40.608 108.485,39.108C109.385,37.608 110.785,36.408 112.485,35.608C114.285,34.808 116.485,34.408 118.985,34.408L128.085,34.408L128.085,31.908C128.085,29.708 127.485,28.108 126.285,27.008C125.085,26.008 123.185,25.408 120.485,25.408C118.585,25.408 117.085,25.608 115.985,26.108C114.885,26.608 113.885,27.408 112.885,28.708L108.285,24.408C109.885,22.508 111.585,21.208 113.485,20.508C115.385,19.808 117.785,19.408 120.685,19.408C130.185,19.408 134.885,23.408 134.885,31.308L134.885,54.408L135.085,54.408ZM128.186,42.008L128.186,39.208L120.086,39.208C118.086,39.208 116.486,39.608 115.486,40.508C114.386,41.408 113.886,42.608 113.886,44.208C113.886,47.508 115.986,49.108 120.186,49.108C121.686,49.108 122.886,49.008 123.886,48.708C124.886,48.408 125.785,47.908 126.686,47.108C127.686,46.108 128.186,44.408 128.186,42.008" style="fill-rule:nonzero;"/>
        </g>
        <g transform="matrix(5.04053,0,0,5.04053,714.001,1255.9)">
            <path d="M172.085,54.408L165.085,54.408L165.085,33.408C165.085,31.708 164.785,30.208 164.186,29.108C163.585,27.908 162.786,27.108 161.686,26.608C160.686,26.108 159.486,25.808 158.085,25.808C155.985,25.808 154.285,26.408 152.985,27.708C151.685,29.008 150.985,30.908 150.985,33.408L150.985,54.408L144.085,54.408L144.085,19.908L150.886,19.908L150.886,23.408C152.085,22.108 153.386,21.208 155.085,20.508C156.686,19.808 158.386,19.508 160.085,19.508C163.585,19.508 166.485,20.608 168.585,22.708C170.886,24.908 172.085,28.208 172.085,32.408L172.085,54.408Z" style="fill-rule:nonzero;"/>
        </g>
        <g transform="matrix(5.04053,0,0,5.04053,714.001,1255.9)">
            <path d="M206.485,54.408L199.685,54.408L199.685,51.308C198.385,52.608 197.084,53.508 195.685,54.008C194.285,54.508 192.584,54.808 190.485,54.808C188.386,54.808 186.585,54.508 185.085,54.008C183.585,53.508 182.285,52.708 181.186,51.708C179.386,49.808 178.486,47.308 178.486,44.308C178.486,42.308 178.986,40.608 179.886,39.108C180.785,37.608 182.186,36.408 183.886,35.608C185.686,34.808 187.886,34.408 190.386,34.408L199.486,34.408L199.486,31.908C199.486,29.708 198.886,28.108 197.686,27.008C196.486,26.008 194.585,25.408 191.886,25.408C189.986,25.408 188.486,25.608 187.386,26.108C186.285,26.608 185.285,27.408 184.285,28.708L179.685,24.408C181.285,22.508 182.985,21.208 184.885,20.508C186.784,19.808 189.185,19.408 192.084,19.408C201.584,19.408 206.284,23.408 206.284,31.308L206.284,54.408L206.485,54.408ZM199.585,42.008L199.585,39.208L191.485,39.208C189.485,39.208 187.885,39.608 186.885,40.508C185.784,41.408 185.284,42.608 185.284,44.208C185.284,47.508 187.385,49.108 191.584,49.108C193.084,49.108 194.284,49.008 195.284,48.708C196.284,48.408 197.184,47.908 198.084,47.108C199.085,46.108 199.585,44.408 199.585,42.008" style="fill-rule:nonzero;"/>
        </g>
        <g transform="matrix(5.04053,0,0,5.04053,714.001,1255.9)">
            <rect x="2.285" y="5.409" width="14" height="14"/>
        </g>
        <g transform="matrix(5.04053,0,0,5.04053,714.001,1255.9)">
            <rect x="2.285" y="22.409" width="14" height="14"/>
        </g>
        <g transform="matrix(5.04053,0,0,5.04053,714.001,1255.9)">
            <rect x="19.285" y="5.409" width="14" height="14"/>
        </g>
        <g transform="matrix(5.04053,0,0,5.04053,714.001,1255.9)">
            <rect x="19.285" y="22.409" width="14" height="14"/>
        </g>
    </g>
</svg>
