<?xml version="1.0" encoding="UTF-8" standalone="no"?>
<!DOCTYPE svg PUBLIC "-//W3C//DTD SVG 1.1//EN" "http://www.w3.org/Graphics/SVG/1.1/DTD/svg11.dtd">
<svg width="100%" height="100%" viewBox="0 0 627 254" version="1.1" xmlns="http://www.w3.org/2000/svg" xmlns:xlink="http://www.w3.org/1999/xlink" xml:space="preserve" xmlns:serif="http://www.serif.com/" style="fill-rule:evenodd;clip-rule:evenodd;stroke-linejoin:round;stroke-miterlimit:2;">
    <g transform="matrix(0.709456,0,0,0.709456,-566.642,-514.903)">
        <g transform="matrix(0.478778,0,0,0.478778,-1868.38,20.5004)">
            <g transform="matrix(540.316,0,0,540.316,5598.15,1863.71)">
                <path d="M0.244,0.095L0.246,-0.723L0.061,-0.723L0.059,0.04C0.059,0.089 0.041,0.122 0.001,0.122C-0.012,0.122 -0.042,0.112 -0.051,0.11L-0.051,0.217C-0.034,0.221 0.032,0.227 0.057,0.227C0.174,0.227 0.244,0.189 0.244,0.095Z" style="fill:rgb(14,104,102);fill-rule:nonzero;"/>
            </g>
            <g transform="matrix(540.316,0,0,540.316,5761.87,1863.71)">
                <path d="M0.578,-0.022L0.578,-0.348C0.578,-0.475 0.495,-0.524 0.313,-0.524C0.203,-0.524 0.096,-0.495 0.073,-0.486L0.073,-0.387C0.095,-0.4 0.205,-0.428 0.26,-0.428C0.359,-0.428 0.398,-0.399 0.398,-0.355L0.398,-0.327L0.281,-0.327C0.145,-0.327 0.029,-0.268 0.029,-0.16C0.029,-0.045 0.115,0.012 0.289,0.012C0.449,0.012 0.551,-0.012 0.578,-0.022ZM0.398,-0.094C0.389,-0.089 0.344,-0.08 0.303,-0.08C0.248,-0.08 0.212,-0.104 0.212,-0.162C0.212,-0.222 0.258,-0.245 0.339,-0.245L0.398,-0.245L0.398,-0.094Z" style="fill:rgb(14,104,102);fill-rule:nonzero;"/>
            </g>
            <g transform="matrix(540.316,0,0,540.316,6104.43,1863.71)">
                <path d="M0.576,-0.226L0.576,-0.269C0.576,-0.417 0.486,-0.524 0.309,-0.524C0.15,-0.524 0.038,-0.439 0.038,-0.269C0.038,-0.087 0.103,0.012 0.315,0.012C0.438,0.012 0.526,-0.015 0.548,-0.027L0.548,-0.13C0.528,-0.114 0.451,-0.086 0.386,-0.086C0.272,-0.086 0.223,-0.131 0.221,-0.226L0.576,-0.226ZM0.399,-0.311L0.221,-0.311C0.223,-0.392 0.252,-0.431 0.31,-0.431C0.369,-0.431 0.397,-0.382 0.399,-0.311Z" style="fill:rgb(14,104,102);fill-rule:nonzero;"/>
            </g>
            <g transform="matrix(540.316,0,0,540.316,6434.56,1863.71)">
                <path d="M0.39,-0L0.39,-0.106C0.373,-0.1 0.331,-0.092 0.32,-0.092C0.266,-0.092 0.244,-0.119 0.244,-0.165L0.244,-0.407L0.379,-0.407L0.379,-0.512L0.244,-0.512L0.244,-0.632L0.059,-0.632L0.059,-0.134C0.059,-0.041 0.116,0.011 0.259,0.011C0.295,0.011 0.37,0.005 0.39,-0Z" style="fill:rgb(14,104,102);fill-rule:nonzero;"/>
            </g>
            <g transform="matrix(540.316,0,0,540.316,6662.57,1863.71)">
                <path d="M0.517,-0L0.517,-0.104L0.255,-0.104L0.504,-0.408L0.504,-0.512L0.047,-0.512L0.047,-0.408L0.287,-0.408L0.035,-0.104L0.035,-0L0.517,-0Z" style="fill:rgb(14,104,102);fill-rule:nonzero;"/>
            </g>
            <g transform="matrix(540.316,0,0,540.316,6952.72,1863.71)">
                <path d="M0.576,-0.226L0.576,-0.269C0.576,-0.417 0.486,-0.524 0.309,-0.524C0.15,-0.524 0.038,-0.439 0.038,-0.269C0.038,-0.087 0.103,0.012 0.315,0.012C0.438,0.012 0.526,-0.015 0.548,-0.027L0.548,-0.13C0.528,-0.114 0.451,-0.086 0.386,-0.086C0.272,-0.086 0.223,-0.131 0.221,-0.226L0.576,-0.226ZM0.399,-0.311L0.221,-0.311C0.223,-0.392 0.252,-0.431 0.31,-0.431C0.369,-0.431 0.397,-0.382 0.399,-0.311Z" style="fill:rgb(14,104,102);fill-rule:nonzero;"/>
            </g>
            <g transform="matrix(540.316,0,0,540.316,7282.86,1863.71)">
                <rect x="0.059" y="-0.723" width="0.185" height="0.723" style="fill:rgb(14,104,102);fill-rule:nonzero;"/>
            </g>
        </g>
        <g transform="matrix(0.894487,0,0,0.894487,-5067.11,-1269.92)">
            <text x="6655.52px" y="2601.51px" style="font-family:'AeonisLTPro-Light', 'Aeonis LT Pro', sans-serif;font-weight:300;font-size:138.102px;fill:rgb(91,85,79);">Einsparzähler</text>
        </g>
    </g>
</svg>
